<svg xmlns="http://www.w3.org/2000/svg" viewBox="0 0 64 23"><path fill="#fff" d="M3.75 17v-5.14c0-1.28.18-2.2.52-2.76.35-.56.9-.84 1.66-.84.57 0 .98.2 1.25.6.26.38.4.98.4 1.76V17h2.97v-5.48c0-1.13.18-1.96.54-2.48.36-.52.9-.78 1.64-.78.56 0 .98.2 1.24.6.27.38.4.98.4 1.76V17h2.99V9.88c0-1.4-.32-2.42-.95-3.05-.64-.64-1.58-.95-2.81-.95-.72 0-1.36.14-1.93.42-.57.28-1 .67-1.3 1.18h-.26c-.58-1.07-1.68-1.6-3.32-1.6-.72 0-1.35.14-1.9.42-.56.28-.98.68-1.27 1.18h-.17l-.4-1.4H.78V17h2.97zm16.8 4.8c1.05 0 1.96-.28 2.75-.84a5.33 5.33 0 001.8-2.56l4.63-12.32h-3.2l-2.02 6.14c-.2.6-.34 1.23-.42 1.9h-.05a8.52 8.52 0 00-.37-1.9l-2.06-6.14h-3.26l4.34 10.84-.18.54a3.13 3.13 0 01-.92 1.46c-.4.32-.86.48-1.38.48a5.1 5.1 0 01-1.17-.12v2.36c.49.1 1 .16 1.5.16zm13.43 0c2 0 3.52-.35 4.59-1.05 1.06-.7 1.6-1.7 1.6-2.97 0-1-.32-1.75-.95-2.26-.62-.52-1.54-.78-2.74-.78h-1.85c-1.1 0-1.64-.21-1.64-.64 0-.29.15-.55.46-.78l.44.05.53.03a5.3 5.3 0 003.4-.98 3.31 3.31 0 001.23-2.74c0-.61-.15-1.16-.47-1.64l1.71-.44V6.08h-3.8a12.46 12.46 0 00-1.9-.2c-1.44 0-2.55.32-3.32.97a3.41 3.41 0 00-1.16 2.77c0 .74.17 1.38.5 1.93.34.55.79.94 1.36 1.2-.45.26-.8.53-1.04.8-.24.28-.36.63-.36 1.05 0 .33.11.64.34.94.23.3.5.5.8.64-.8.19-1.4.5-1.8.95-.42.44-.62.99-.62 1.65 0 .95.4 1.7 1.2 2.23.8.53 1.97.8 3.5.8zm.61-10.22c-.55 0-.97-.17-1.24-.52-.27-.34-.4-.81-.4-1.4 0-1.32.55-1.98 1.64-1.98 1.08 0 1.62.66 1.62 1.98 0 .59-.13 1.06-.39 1.4-.26.35-.67.52-1.23.52zm-.48 8.28c-.7 0-1.26-.12-1.65-.35-.4-.23-.6-.56-.6-.97 0-.42.19-.76.56-1.02.36-.25.82-.38 1.37-.38h1.54c.75 0 1.3.07 1.66.23.36.16.54.44.54.85 0 .5-.3.9-.9 1.2-.61.3-1.45.44-2.52.44zM46.2 17.2a5.1 5.1 0 003.92-1.5c.93-1.01 1.4-2.4 1.4-4.18 0-1.14-.21-2.14-.64-3a4.56 4.56 0 00-1.85-1.96 5.5 5.5 0 00-2.77-.68c-1.69 0-3 .5-3.93 1.48-.93 1-1.4 2.38-1.4 4.16 0 1.15.22 2.15.65 3a4.58 4.58 0 001.85 1.99c.8.46 1.72.69 2.77.69zm.04-2.4c-.8 0-1.38-.27-1.73-.83a4.58 4.58 0 01-.54-2.45c0-1.09.18-1.9.53-2.44.35-.53.92-.8 1.72-.8.8 0 1.38.27 1.73.81.35.54.52 1.35.52 2.43 0 1.09-.17 1.9-.52 2.46-.35.55-.92.82-1.71.82zm12.9 2.2l4.16-10.92h-3.12l-2.1 6.22c-.26.87-.4 1.61-.44 2.24h-.06c-.05-.7-.2-1.45-.44-2.24l-2.1-6.22H51.9L56.07 17h3.06z"/></svg>
